#!OML:ASF F:\VICON\USERDATA\INSTALL\rory3\rory3.ASF
:FULLY-SPECIFIED
:DEGREES
1417
root -0.828854 18.7842 1.83367 -143.546 -82.5714 147.197
lowerback 6.48303 -0.366541 -1.84714
upperback 3.01034 -0.659222 1.19925
thorax -0.497953 -0.386321 2.31561
lowerneck -1.89651 -4.0223 -6.26992
upperneck 34.9239 -9.98371 7.44727
head 12.5866 -5.18331 2.71078
rclavicle 5.96354e-015 0
rhumerus -9.16053 11.9324 -68.9089
rradius 88.0546
rwrist -1.30989
rhand -47.5788 -6.61869
rfingers 7.12502
rthumb -20.2637 -35.5817
lclavicle 5.96354e-015 0
lhumerus 4.63067 -41.5285 68.6513
lradius 105.428
lwrist -7.91099
lhand -8.79972 24.7313
lfingers 7.12502
lthumb 17.1392 53.9954
rfemur -17.1424 25.2397 -0.808778
rtibia 31.6812
rfoot -10.1098 -4.01164
rtoes -14.9301
lfemur -3.83366 -11.0241 -17.8063
ltibia 12.0873
lfoot -8.38716 23.05
ltoes -16.4898
1418
root -0.841015 18.7961 1.9074 -139.535 -82.9385 143.286
lowerback 5.9527 -0.484446 -2.38991
upperback 3.09789 -0.834859 1.03493
thorax -0.0978924 -0.483497 2.4548
lowerneck -1.95587 -4.15893 -6.41826
upperneck 34.7606 -10.02 7.21962
head 12.5265 -5.23087 2.64152
rclavicle -7.55382e-015 0
rhumerus -8.91492 8.26088 -68.8222
rradius 87.3822
rwrist -1.11314
rhand -47.8741 -6.613
rfingers 7.12502
rthumb -20.5474 -35.5456
lclavicle -7.55382e-015 0
lhumerus 7.84547 -42.7544 67.6251
lradius 104.469
lwrist -8.69737
lhand -10.2889 23.5128
lfingers 7.12502
lthumb 15.7055 52.8955
rfemur -17.1056 24.8511 -1.20083
rtibia 31.8264
rfoot -9.63503 -4.25737
rtoes -15.0299
lfemur -3.89733 -11.3242 -18.2372
ltibia 11.7989
lfoot -8.15116 22.8356
ltoes -16.2356
1419
root -0.845063 18.811 1.97074 -138.76 -83.3066 142.489
lowerback 5.62425 -0.508103 -2.80937
upperback 3.22931 -0.879853 1.02466
thorax 0.229925 -0.518315 2.67675
lowerneck -2.03561 -4.3002 -6.66023
upperneck 34.5558 -10.0501 7.02785
head 12.4602 -5.28075 2.60295
rclavicle -1.19271e-015 -5.56597e-015
rhumerus -8.70537 4.50598 -68.8353
rradius 86.8537
rwrist -0.813857
rhand -48.1564 -6.5836
rfingers 7.12502
rthumb -20.8187 -35.4867
lclavicle -1.19271e-015 -5.56597e-015
lhumerus 11.1061 -43.8809 66.4704
lradius 103.387
lwrist -9.51049
lhand -12.0839 22.8955
lfingers 7.12502
lthumb 13.9761 52.4057
rfemur -17.0042 25.0044 -1.13295
rtibia 31.942
rfoot -9.14668 -4.79881
rtoes -15.378
lfemur -3.80646 -11.5103 -18.2877
ltibia 11.6194
lfoot -8.10967 22.6447
ltoes -15.9969
1420
root -0.834131 18.8259 2.0479 -138.883 -83.9504 142.588
lowerback 5.59498 -0.606843 -2.77801
upperback 3.27718 -1.00981 1.07946
thorax 0.304751 -0.585795 2.72126
lowerneck -2.11539 -4.44865 -6.94959
upperneck 34.3507 -10.0631 6.7717
head 12.3919 -5.33516 2.55009
rclavicle -1.09332e-014 -5.56597e-015
rhumerus -8.51001 0.84916 -68.7762
rradius 86.4761
rwrist -0.881338
rhand -48.3584 -7.19862
rfingers 7.12502
rthumb -21.0127 -36.0803
lclavicle -1.09332e-014 -5.56597e-015
lhumerus 14.2948 -44.646 65.2669
lradius 102.165
lwrist -10.6667
lhand -12.9196 21.8441
lfingers 7.12502
lthumb 13.1707 51.4081
rfemur -16.8872 24.917 -0.828501
rtibia 32.0228
rfoot -8.64461 -5.1905
rtoes -15.5649
lfemur -3.90523 -11.8692 -18.0752
ltibia 11.6216
lfoot -7.85569 22.5813
ltoes -16.429
1421
root -0.820309 18.8375 2.12477 -138.049 -84.6854 141.735
lowerback 5.6448 -0.729222 -2.70174
upperback 3.28076 -1.17041 1.09617
thorax 0.290326 -0.665111 2.70446
lowerneck -2.02358 -4.61311 -7.09693
upperneck 33.9615 -10.113 6.5506
head 12.2088 -5.38853 2.48787
rclavicle 6.95746e-016 1.11319e-014
rhumerus -8.17527 -2.81648 -68.7598
rradius 86.0015
rwrist -1.15463
rhand -48.6222 -7.85488
rfingers 7.12502
rthumb -21.2662 -36.7082
lclavicle 6.95746e-016 1.11319e-014
lhumerus 17.4528 -45.2108 64.0091
lradius 100.817
lwrist -12.1963
lhand -13.1753 20.5534
lfingers 7.12502
lthumb 12.9242 50.1332
rfemur -16.7541 24.6231 -0.523712
rtibia 32.1103
rfoot -8.10718 -5.48084
rtoes -15.7324
lfemur -4.11965 -12.3232 -17.8448
ltibia 11.7371
lfoot -7.70863 22.4702
ltoes -16.3769
1422
root -0.807962 18.8483 2.1931 -136.231 -85.2878 139.938
lowerback 5.63238 -0.791617 -2.80379
upperback 3.2789 -1.25712 1.04521
thorax 0.302391 -0.709185 2.71341
lowerneck -1.95904 -4.78014 -7.34568
upperneck 33.5396 -10.1982 6.49311
head 12.0389 -5.45005 2.50132
rclavicle -4.37326e-015 8.34896e-015
rhumerus -7.68863 -6.56544 -68.9183
rradius 85.388
rwrist -1.45513
rhand -48.8192 -8.09338
rfingers 7.12502
rthumb -21.4554 -36.9252
lclavicle -4.37326e-015 8.34896e-015
lhumerus 20.7427 -45.8891 62.5245
lradius 99.3732
lwrist -13.4579
lhand -14.2066 20.5981
lfingers 7.12502
lthumb 11.9299 50.2382
rfemur -16.7061 24.4787 -0.351608
rtibia 32.2029
rfoot -7.50988 -5.84289
rtoes -15.8693
lfemur -4.38658 -12.7312 -17.7163
ltibia 11.9312
lfoot -7.7298 22.3394
ltoes -15.9647
1423
root -0.798966 18.8622 2.25904 -133.119 -85.7796 136.897
lowerback 5.53607 -0.824537 -3.02465
upperback 3.24337 -1.30624 0.969081
thorax 0.326368 -0.734842 2.75997
lowerneck -1.95841 -4.98011 -7.95515
upperneck 33.3383 -10.3873 6.61442
head 12.019 -5.58453 2.62916
rclavicle -4.17448e-015 7.55382e-015
rhumerus -7.27738 -10.3239 -69.2639
rradius 84.9038
rwrist -1.53035
rhand -48.8691 -8.35401
rfingers 7.12502
rthumb -21.5033 -37.1804
lclavicle -4.17448e-015 7.55382e-015
lhumerus 24.0658 -46.6374 61.0286
lradius 97.7103
lwrist -14.3
lhand -15.6038 20.8569
lfingers 7.12502
lthumb 10.5824 50.5704
rfemur -16.7496 24.4711 -0.355057
rtibia 32.3228
rfoot -7.03955 -6.25289
rtoes -15.4712
lfemur -4.65589 -13.0742 -17.7152
ltibia 12.0292
lfoot -7.47402 22.1979
ltoes -16.8646
1424
root -0.787469 18.8736 2.33441 -125.213 -86.382 129.081
lowerback 5.50189 -0.956445 -3.15694
upperback 3.15349 -1.48388 0.867914
thorax 0.266196 -0.820479 2.739
lowerneck -1.9294 -5.23861 -8.3607
upperneck 33.2273 -10.6291 6.47425
head 12.01 -5.74798 2.61655
rclavicle -4.77083e-015 4.77083e-015
rhumerus -6.96291 -14.0276 -69.7868
rradius 84.5811
rwrist -1.30063
rhand -48.9848 -8.81913
rfingers 7.12502
rthumb -21.6144 -37.6328
lclavicle -4.77083e-015 4.77083e-015
lhumerus 27.2381 -47.4288 59.5264
lradius 95.9982
lwrist -14.9951
lhand -17.1706 21.4008
lfingers 7.12502
lthumb 9.07076 51.1857
rfemur -16.7273 24.2708 -0.425918
rtibia 32.498
rfoot -6.70402 -6.74598
rtoes -15.1481
lfemur -4.92262 -13.6848 -17.785
ltibia 11.9283
lfoot -6.98812 22.0533
ltoes -17.8518
1425
root -0.775856 18.88 2.40756 -116.187 -86.8749 120.072
lowerback 5.51609 -1.07977 -3.29902
upperback 3.10752 -1.65369 0.794132
thorax 0.225184 -0.904302 2.75194
lowerneck -1.90741 -5.45591 -8.57559
upperneck 33.003 -10.7753 6.22686
head 11.9275 -5.85358 2.54273
rclavicle -9.0447e-015 1.19271e-015
rhumerus -6.52995 -17.6073 -70.3532
rradius 84.348
rwrist -1.24886
rhand -49.2241 -10.192
rfingers 7.12502
rthumb -21.8442 -38.9791
lclavicle -9.0447e-015 1.19271e-015
lhumerus 30.4136 -48.0534 57.8122
lradius 94.2262
lwrist -15.6282
lhand -18.6723 22.2829
lfingers 7.12502
lthumb 7.62147 52.1255
rfemur -16.6778 23.9853 -0.43473
rtibia 32.7222
rfoot -6.28569 -7.06338
rtoes -15.2971
lfemur -5.00236 -14.2954 -17.8157
ltibia 11.6749
lfoot -6.77736 21.9355
ltoes -17.3323
1426
root -0.76773 18.8852 2.45201 -122.198 -86.9883 125.878
lowerback 5.65525 -0.872803 -3.7623
upperback 3.15476 -1.40675 0.806345
thorax 0.19185 -0.787944 3.01567
lowerneck -1.8571 -5.63791 -8.94452
upperneck 32.6792 -10.9139 6.21977
head 11.8235 -5.94828 2.58816
rclavicle -1.31695e-014 -6.75868e-015
rhumerus -6.00567 -21.0681 -70.9259
rradius 84.137
rwrist -1.27181
rhand -49.3174 -10.7253
rfingers 7.12502
rthumb -21.9338 -39.5019
lclavicle -1.31695e-014 -6.75868e-015
lhumerus 33.4919 -48.5248 56.1196
lradius 92.2564
lwrist -16.0712
lhand -19.9526 22.4317
lfingers 7.12502
lthumb 6.38561 52.3154
rfemur -16.7692 24.5649 -0.271282
rtibia 32.9351
rfoot -5.65979 -7.31748
rtoes -15.6614
lfemur -4.6688 -14.1913 -17.7454
ltibia 11.5384
lfoot -6.96578 21.9861
ltoes -16.6599
1427
root -0.760975 18.89 2.49611 -126.425 -87.0187 129.908
lowerback 5.72883 -0.66764 -4.29555
upperback 3.20552 -1.16383 0.78744
thorax 0.196266 -0.67506 3.28497
lowerneck -1.71258 -5.89975 -9.10526
upperneck 32.2268 -11.1069 5.97452
head 11.627 -6.0662 2.50727
rclavicle -2.7482e-014 9.14409e-015
rhumerus -5.41015 -24.4286 -71.5225
rradius 83.8975
rwrist -1.1198
rhand -49.9096 -10.2412
rfingers 7.12502
rthumb -22.5023 -38.9501
lclavicle -2.7482e-014 9.14409e-015
lhumerus 36.5199 -48.8169 54.5815
lradius 90.0682
lwrist -16.6295
lhand -20.8125 21.9343
lfingers 7.12502
lthumb 5.55542 51.8414
rfemur -16.7914 25.2056 -0.214492
rtibia 33.0671
rfoot -5.06451 -7.70008
rtoes -15.7009
lfemur -4.60689 -13.948 -17.8249
ltibia 11.8648
lfoot -6.92013 21.9246
ltoes -17.4695
1428
root -0.751025 18.9027 2.55613 -117.469 -87.7929 121.173
lowerback 5.52398 -0.842021 -4.28711
upperback 3.09126 -1.38225 0.893523
thorax 0.214373 -0.781071 3.39789
lowerneck -1.56859 -6.11035 -9.20459
upperneck 31.7836 -11.1613 5.48654
head 11.4038 -6.13882 2.34526
rclavicle 0 -6.55989e-015
rhumerus -4.68307 -27.5376 -72.1818
rradius 83.6637
rwrist -1.05113
rhand -50.6458 -8.9134
rfingers 7.12502
rthumb -23.2088 -37.535
lclavicle 0 -6.55989e-015
lhumerus 39.1079 -48.8045 53.3755
lradius 87.9189
lwrist -17.6478
lhand -21.3454 21.7458
lfingers 7.12502
lthumb 5.04087 51.6658
rfemur -16.8964 25.1979 0.0759665
rtibia 33.2232
rfoot -4.63671 -8.29108
rtoes -15.6918
lfemur -5.10435 -14.1992 -17.4553
ltibia 11.91
lfoot -6.40623 21.5187
ltoes -18.5386
1429
root -0.730161 18.9203 2.60636 -115.504 -89.4784 119.684
lowerback 5.25583 -1.06327 -3.24876
upperback 2.87114 -1.61296 1.2791
thorax 0.136991 -0.878606 3.21921
lowerneck -1.56064 -6.20539 -9.56615
upperneck 31.5327 -11.1485 5.34928
head 11.3189 -6.17582 2.35844
rclavicle 1.01877e-014 2.18663e-015
rhumerus -3.87936 -30.5207 -72.9921
rradius 83.4462
rwrist -0.939195
rhand -50.8853 -9.08758
rfingers 7.12502
rthumb -23.4385 -37.68
lclavicle 1.01877e-014 2.18663e-015
lhumerus 41.6595 -48.8407 51.8415
lradius 85.9255
lwrist -18.5357
lhand -21.875 22.0727
lfingers 7.12502
lthumb 4.52947 52.0042
rfemur -17.3001 25.2551 1.46136
rtibia 33.3014
rfoot -4.1655 -9.02569
rtoes -15.5523
lfemur -6.03882 -14.4908 -15.7299
ltibia 12.1135
lfoot -6.47685 20.9328
ltoes -17.5865
1430
root -0.731479 18.921 2.66788 -96.9979 -88.7441 100.601
lowerback 5.72716 -0.927491 -4.43814
upperback 2.95065 -1.5103 1.01809
thorax -0.0238933 -0.838043 3.62511
lowerneck -1.70783 -6.34708 -9.97794
upperneck 31.6435 -11.2227 5.13344
head 11.4169 -6.26974 2.32997
rclavicle -3.34704e-014 1.42131e-014
rhumerus -3.1462 -33.2446 -73.7583
rradius 83.1779
rwrist -0.569363
rhand -50.7484 -10.3979
rfingers 7.12502
rthumb -23.3072 -39.0071
lclavicle -3.34704e-014 1.42131e-014
lhumerus 44.1022 -48.8945 50.4313
lradius 83.7992
lwrist -19.2359
lhand -22.1582 22.3762
lfingers 7.12502
lthumb 4.25598 52.3135
rfemur -16.7275 25.4427 0.652756
rtibia 33.3934
rfoot -3.66223 -8.90111
rtoes -15.5554
lfemur -5.51803 -15.1622 -17.0009
ltibia 12.5141
lfoot -7.04921 21.4109
ltoes -16.721
1431
root -0.724458 18.93 2.71977 -76.0878 -89.0292 79.5844
lowerback 5.89739 -0.907941 -4.66193
upperback 2.87523 -1.50237 1.16426
thorax -0.186172 -0.831386 3.90788
lowerneck -1.97741 -6.57702 -10.2252
upperneck 31.8487 -11.3446 4.60602
head 11.5519 -6.39509 2.14613
rclavicle -1.39398e-014 6.85807e-015
rhumerus -2.33651 -35.7608 -74.4284
rradius 82.78
rwrist 0.0144103
rhand -50.8813 -11.0144
rfingers 7.12502
rthumb -23.4347 -39.6073
lclavicle -1.39398e-014 6.85807e-015
lhumerus 46.5314 -48.9375 49.1971
lradius 81.6509
lwrist -19.9907
lhand -22.38 23.4753
lfingers 7.12502
lthumb 4.04185 53.4167
rfemur -16.5938 25.6184 0.938295
rtibia 33.4877
rfoot -3.08853 -9.43251
rtoes -15.5559
lfemur -5.66942 -15.527 -16.8605
ltibia 12.8746
lfoot -7.18692 21.3704
ltoes -16.6775
